<?xml version="1.0" encoding="utf-8"?>
<!-- Generator: Adobe Illustrator 22.1.0, SVG Export Plug-In . SVG Version: 6.00 Build 0)  -->
<svg version="1.1" id="图层_1" xmlns="http://www.w3.org/2000/svg" xmlns:xlink="http://www.w3.org/1999/xlink" x="0px" y="0px"
	 viewBox="0 0 240.9 283.5" style="enable-background:new 0 0 240.9 283.5;" xml:space="preserve">
<style type="text/css">
	.st0{opacity:0.5;fill:#D2001E;enable-background:new    ;}
	.st1{fill:#AA0039;}
	.st2{font-family:'STKaiti';}
	.st3{font-size:2px;}
	.st4{fill:#0C4B5D;}
	.st5{font-family:'STZhongsong';}
	.st6{enable-background:new    ;}
	.st7{font-size:1.4px;}
</style>
<image style="overflow:visible;enable-background:new    ;" width="3252" height="3252" xlink:href="48A757C2.jpg"  transform="matrix(8.716623e-02 0 0 8.716623e-02 -21.2776 -1.771870e-02)">
</image>
<circle class="st0" cx="157" cy="132.4" r="1.1"/>
<circle class="st0" cx="69.3" cy="180.6" r="1.1"/>
<circle class="st0" cx="132.3" cy="264" r="1.1"/>
<circle class="st0" cx="185.7" cy="65.2" r="1.1"/>
<circle class="st0" cx="123.9" cy="80.7" r="1.1"/>
<circle class="st0" cx="89.7" cy="52.7" r="1.1"/>
<circle class="st0" cx="112.3" cy="22.1" r="1.1"/>
<circle class="st0" cx="71" cy="3.6" r="1.1"/>
<circle class="st0" cx="171" cy="135.6" r="1.1"/>
<circle class="st0" cx="205.4" cy="133.6" r="1.1"/>
<text transform="matrix(1 0 0 1 69.5559 7.4469)" class="st2 st3">京口</text>
<text transform="matrix(1 0 0 1 110.1568 26.1134)" class="st2 st3">江阴</text>
<text transform="matrix(1 0 0 1 122.0456 84.4141)" class="st2 st3">震泽</text>
<circle class="st0" cx="129.9" cy="58.1" r="1.1"/>
<text transform="matrix(1 0 0 1 128.0884 60.8381)" class="st2 st3">姑苏</text>
<circle class="st0" cx="130.5" cy="51.6" r="1.1"/>
<text transform="matrix(1 0 0 1 128.7383 54.3634)" class="st2 st3">相城</text>
<text transform="matrix(1 0 0 1 184.3895 68.7804)" class="st2 st3">川沙</text>
<circle class="st0" cx="173.1" cy="62.9" r="1.1"/>
<text transform="matrix(1 0 0 1 170.7645 66.4217)" class="st2 st3">上海</text>
<circle class="st0" cx="177.5" cy="63" r="1.1"/>
<text transform="matrix(1 0 0 1 176.2227 67.5555)" class="st2 st3">浦东</text>
<text transform="matrix(1 0 0 1 168.3895 138.6134)" class="st2 st3">旧慈溪</text>
<text transform="matrix(1 0 0 1 203.7224 136.4469)" class="st2 st3">定海</text>
<circle class="st0" cx="210.9" cy="117.8" r="1.1"/>
<text transform="matrix(1 0 0 1 209.2729 121.6776)" class="st2 st3">岱山</text>
<text transform="matrix(1 0 0 1 154.8895 135.7804)" class="st2 st3">余姚</text>
<circle class="st0" cx="128.6" cy="134.7" r="1.1"/>
<text transform="matrix(1 0 0 1 126.4831 138.0297)" class="st2 st3">绍兴</text>
<text transform="matrix(1 0 0 1 66.9724 183.9469)" class="st2 st3">兰溪</text>
<text transform="matrix(1 0 0 1 87.3889 56.3634)" class="st2 st3">宜兴</text>
<text transform="matrix(1 0 0 1 130.0554 266.9469)" class="st2 st3">瑞安</text>
<circle class="st0" cx="126.8" cy="269" r="1.1"/>
<text transform="matrix(1 0 0 1 124.5294 272.0216)" class="st2 st3">平阳</text>
<text transform="matrix(1 0 0 1 168.3895 141.6137)" class="st4 st5 st3">胡展华</text>
<text transform="matrix(1 0 0 1 203.3895 139.6137)" class="st4 st5 st3">叶有容</text>
<text transform="matrix(1 0 0 1 209.3895 124.6137)" class="st4 st5 st3">厉千珞</text>
<text transform="matrix(1 0 0 1 153.3895 127.6137)" class="st6"><tspan x="0" y="0" class="st4 st5 st3">符凯奕</tspan><tspan x="0" y="2.4" class="st4 st5 st3">顾嘉琪</tspan></text>
<text transform="matrix(1 0 0 1 126.4831 132.6135)" class="st4 st5 st3">王启文</text>
<text transform="matrix(1 0 0 1 129.3895 269.6137)" class="st4 st5 st3">罗行沛</text>
<text transform="matrix(1 0 0 1 123.3895 275.6137)" class="st4 st5 st3">游丰硕</text>
<text transform="matrix(1 0 0 1 164.3895 61.4991)" class="st4 st5 st3">杭江南</text>
<text transform="matrix(1 0 0 1 164.3895 63.8991)" class="st4 st5 st3">曹禹杰</text>
<text transform="matrix(1 0 0 1 164.3895 66.2991)" class="st6"><tspan x="0" y="0" class="st4 st5 st3">孙逸雯</tspan><tspan x="0" y="2.4" class="st4 st5 st3">曲慎捷</tspan><tspan x="0" y="4.8" class="st4 st5 st3">陈歆睿</tspan></text>
<text transform="matrix(1 0 0 1 175.7227 71.5825)" class="st4 st5 st3">任天齐</text>
<text transform="matrix(1 0 0 1 175.7227 73.9825)" class="st4 st5 st3">孙抒吟</text>
<text transform="matrix(1 0 0 1 175.7227 76.3825)" class="st4 st5 st3">吕珺昊</text>
<text transform="matrix(1 0 0 1 183.7227 71.6137)" class="st4 st5 st3">宋周辰</text>
<text transform="matrix(1 0 0 1 128.0887 47.0825)" class="st4 st5 st3">濮子豪</text>
<text transform="matrix(1 0 0 1 128.0887 49.4825)" class="st4 st5 st3">张泽琰</text>
<text transform="matrix(1 0 0 1 127.9214 64.1061)" class="st4 st5 st3">张舟</text>
<text transform="matrix(1 0 0 1 122.0454 87.1061)" class="st4 st5 st3">张粼</text>
<text transform="matrix(1 0 0 1 88.5888 59.2042)" class="st4 st5 st3">张翼</text>
<text transform="matrix(1 0 0 1 110.157 29.4542)" class="st4 st5 st3">李怿芃</text>
<text transform="matrix(1 0 0 1 68.8387 11.2564)" class="st4 st5 st3">葛碧临</text>
<text transform="matrix(1 0 0 1 74.8387 11.3764)" class="st4 st5 st7">绍兴</text>
<text transform="matrix(1 0 0 1 66.9722 186.6135)" class="st4 st5 st3">金雍奇</text>
<text transform="matrix(1 0 0 1 11.7224 11.4614)" class="st4 st5 st3">孟博宇</text>
<text transform="matrix(1 0 0 1 11.7224 13.8614)" class="st4 st5 st3">张鑫</text>
<text transform="matrix(1 0 0 1 11.2224 6.9599)" class="st2 st3">非吴方言</text>
<circle class="st0" cx="9.3" cy="6.4" r="1.1"/>
<circle class="st0" cx="175.7" cy="141.5" r="1.1"/>
<text transform="matrix(1 0 0 1 174.0225 144.5029)" class="st2 st3">宁波</text>
<text transform="matrix(1 0 0 1 173.0225 146.5032)" class="st4 st5 st3">虞东翰</text>
</svg>
